<svg width="812" height="812" viewBox="0 0 812 812" fill="none" xmlns="http://www.w3.org/2000/svg">
<path fill-rule="evenodd" clip-rule="evenodd" d="M356.362 2.0834C352.717 2.69202 344.581 4.02377 338.284 5.04215C295.491 11.9569 241.065 31.2249 208.124 51.1226C205.804 52.5237 203.092 54.0422 202.098 54.4972C195.433 57.5523 163.269 79.3512 153.287 87.5797C116.788 117.664 77.2369 162.723 60.3642 193.438C59.1078 195.728 56.8119 199.524 55.2662 201.874C52.4913 206.089 36.7936 237.753 32.8346 247.123C31.7138 249.774 30.3368 253.028 29.7704 254.354C26.426 262.203 17.7124 287.771 16.4229 293.523C15.9016 295.843 14.3741 302.08 13.0303 307.382C6.73617 332.209 4.50957 346.163 2.08111 376.078C0.580647 394.515 0.592711 427.646 2.10221 439.351C2.74096 444.322 3.76838 452.729 4.38002 458.031C6.04318 472.394 10.0685 493.823 13.437 506.239C16.7453 518.43 17.3238 520.415 20.1017 529.138C35.3625 577.038 58.005 619.895 88.8097 659.178C114.046 691.362 167.31 737.952 197.88 754.584C199.205 755.307 204.086 758.046 208.726 760.673C223.46 769.019 248.479 780.77 261.152 785.301C263.472 786.13 266.997 787.476 268.986 788.29C273.005 789.938 287.486 794.644 293.09 796.124C298.685 797.6 316.645 802.077 322.014 803.334C327.706 804.662 344.621 807.48 358.17 809.354C373.184 811.43 420.014 812.21 437.11 810.667C463.483 808.29 468.334 807.579 495.562 802.117C502.648 800.694 529.825 793.418 535.936 791.306C545.43 788.022 557.581 783.569 561.245 782.029C563.565 781.056 566.548 779.808 567.873 779.263C594.638 768.217 647.075 737.817 655.25 728.612C655.581 728.238 658.293 726.057 661.276 723.761C664.258 721.468 667.293 719.043 668.022 718.371C668.748 717.699 673.074 713.893 677.633 709.916C719.67 673.254 753.346 627.159 778.456 571.922C783.949 559.834 793.847 533.651 793.847 531.205C793.847 530.382 794.323 528.767 794.901 527.616C796.411 524.621 799.306 514.217 802.696 499.611C805.534 487.378 806.658 481.49 809.83 462.25C811.921 449.571 811.879 364.102 809.773 350.167C806.348 327.482 801.75 307.193 794.751 283.881C791.379 272.652 783.723 252.42 777.878 239.289C774.693 232.133 763.687 210.09 762.533 208.557C762.033 207.894 759.854 204.098 757.691 200.12C736.468 161.123 696.076 115.049 656.431 84.6239C649.293 79.1433 641.194 73.2831 640.185 72.8643C639.522 72.5901 634.37 69.3361 628.736 65.6362C613.499 55.624 579.121 37.284 566.023 32.177C563.724 31.2822 560.22 29.8721 558.232 29.0435C556.243 28.215 552.718 26.8591 550.398 26.0305C548.078 25.199 545.095 24.048 543.769 23.4695C541.404 22.4361 529.184 18.4379 517.255 14.7982C506.845 11.6225 486.375 6.96442 474.471 5.06323C468.174 4.0569 459.433 2.65587 455.049 1.94782C445.369 0.387101 365.88 0.495562 356.362 2.0834ZM430.204 72.9004C453.41 74.0725 454.594 74.5335 453.48 81.9545C451.856 92.7741 445.809 117.48 443.142 124.193C442.618 125.519 441.265 129.315 440.138 132.63C439.011 135.944 437.327 140.364 436.393 142.452C435.462 144.543 434.7 146.619 434.7 147.068C434.7 147.836 427.339 164.088 425.07 168.331C405.537 204.851 390.21 227.213 366.606 253.628C344.169 278.735 307.971 308.558 284.051 321.643C281.731 322.914 278.477 324.9 276.82 326.057C268.838 331.64 230.516 349.48 224.505 350.411C221.769 350.839 220.986 348.54 218.25 332.089C214.135 307.31 212.887 301.893 206.045 279.06C202.968 268.792 197.982 254.05 196.057 249.533C195.49 248.208 194.18 245.089 193.14 242.603C186.391 226.454 180.001 213.263 172.92 200.853C169.744 195.288 167.147 190.554 167.147 190.328C167.147 190.105 165.246 186.951 162.923 183.32L158.699 176.716L169.853 165.851C186.888 149.249 223.752 121.18 228.512 121.18C229.23 121.18 229.817 120.728 229.817 120.177C229.817 119.27 260.562 103.458 270.794 99.1043C280.465 94.9886 305.13 86.4528 311.77 84.9222C314.09 84.3889 319.242 83.0903 323.219 82.0388C340.342 77.5133 363.084 74.0514 382.274 73.0511C406.552 71.7826 407.932 71.7796 430.204 72.9004ZM527.141 90.0142C528.997 90.7704 532.411 92.1624 534.731 93.1085C537.051 94.0546 540.033 95.2658 541.359 95.7991C587.009 114.148 640.417 154.218 670.763 192.889C674.924 198.192 679.07 203.453 679.98 204.577C691.782 219.193 709.7 250.976 720.273 276.047C720.833 277.373 722.096 280.356 723.081 282.676C726.856 291.555 730.17 302.086 735.603 322.447C742.304 347.573 744.63 366.383 745.259 400.613C745.934 437.2 744.539 450.632 736.419 485.751C733.436 498.649 728.745 514.579 725.775 521.907C724.967 523.895 723.62 527.42 722.78 529.74C719.357 539.192 708.402 562.44 704.033 569.512C702.602 571.832 700.065 576.17 698.396 579.153C683.457 605.848 655.211 639.289 628.133 662.341C624.819 665.165 621.836 667.828 621.504 668.265C621.173 668.699 615.207 673.179 608.247 678.217C590.269 691.233 579.094 698.048 555.725 710.245C546.56 715.029 525.089 723.785 522.534 723.779C521.076 723.776 520.383 722.164 519.816 717.449C517.415 697.566 508.602 659.425 503.314 646.041C502.79 644.716 501.274 640.377 499.949 636.4C478.168 571.187 431.822 506.031 373.114 458.08C368.065 453.958 349.227 440.556 348.483 440.556C348.089 440.556 345.989 439.2 343.816 437.543C341.641 435.886 339.586 434.53 339.248 434.53C338.908 434.53 334.078 431.915 328.513 428.721C316.85 422.023 305.467 416.488 288.269 409.152C286.943 408.585 283.825 407.314 281.339 406.323C275.425 403.97 275.635 402.813 282.544 399.736C299.896 392.008 352.566 360.125 356.362 355.054C356.694 354.611 359.589 352.27 362.798 349.847C381.849 335.469 406.956 311.489 423.657 291.715C428.698 285.749 433.148 280.597 433.549 280.266C433.946 279.934 437.484 275.324 441.41 270.022C445.335 264.719 448.843 260.109 449.204 259.777C450.039 259.009 467.089 233.025 470.952 226.635C479.819 211.958 498.575 173.636 498.575 170.199C498.575 169.355 499.057 168.15 499.644 167.52C500.675 166.417 508.852 142.533 511.591 132.63C516.204 115.932 518.569 105.712 519.816 97.0766C520.988 88.9446 522.037 87.9322 527.141 90.0142ZM519.753 233.333L500.554 272.046L502.446 275.855C503.489 277.949 505.249 281.832 506.36 284.484C507.469 287.135 508.843 290.389 509.409 291.715C509.976 293.041 511.353 296.837 512.468 300.151C513.585 303.466 514.908 307.262 515.408 308.588C518.629 317.111 523.492 336.675 527.093 355.59C530.133 371.553 530.142 427.007 527.108 442.364C524.05 457.854 522.516 464.829 521.419 468.276C520.892 469.933 519.542 474.543 518.415 478.52C515.559 488.625 512.817 496.393 511.633 497.742C511.079 498.372 510.627 499.583 510.627 500.433C510.627 501.283 508.376 506.586 505.625 512.214L500.624 522.446L503.817 527.273C505.574 529.927 507.011 532.458 507.011 532.898C507.011 533.338 509.18 537.134 511.832 541.331C514.483 545.528 516.653 549.171 516.653 549.424C516.653 549.987 528.593 570.846 529.874 572.525C530.753 573.676 537.099 584.983 540.289 591.084C542.459 595.23 546.782 597.68 546.782 594.763C546.782 594.067 548.768 590.407 551.196 586.628C559.298 574.019 573.613 544.166 581.658 523.112C586.225 511.15 593.146 487.019 594.963 476.712C595.487 473.729 596.491 468.306 597.19 464.66C601.308 443.183 601.619 438.881 601.619 403.195C601.619 378.429 601.106 363.487 600.049 357.398C593.942 322.221 593.185 318.69 587.708 299.549C585.406 291.507 579.714 274.068 578.06 269.979C577.262 268.012 576.198 265.321 575.689 263.996C569.539 247.933 556.593 221.133 549.732 210.265C548.111 207.695 546.773 205.173 546.764 204.664C546.755 204.155 544.993 201.684 542.848 199.177L538.949 194.616L519.753 233.333ZM123.92 262.251C127.653 269.838 131.621 278.217 132.739 280.868C133.857 283.52 135.237 286.774 135.809 288.099C137.668 292.423 142.109 304.885 143.107 308.588C143.643 310.576 144.975 315.186 146.068 318.832C149.202 329.287 153.477 350.049 156.183 367.964C160.531 396.753 156.255 459.484 147.909 489.366C142.935 507.17 138.653 520.117 135.092 528.113C134.164 530.204 133.402 532.241 133.402 532.645C133.402 534.79 119.964 561.105 117.174 564.42C112.624 569.828 111.413 569.373 107.49 560.774C105.598 556.631 102.064 548.903 99.6384 543.6C97.2099 538.297 94.2331 531.247 93.0219 527.932C91.8137 524.618 90.3704 521.391 89.816 520.762C89.2617 520.132 88.8097 518.478 88.8097 517.086C88.8097 515.694 88.3578 514.04 87.8034 513.41C86.3963 511.81 82.7898 500.96 78.8066 486.353C68.2612 447.685 66.9114 386.75 75.6942 345.949C77.3935 338.049 80.2739 326.382 81.6448 321.845C84.3897 312.761 89.0176 298.72 89.9878 296.536C90.5753 295.21 91.9613 291.956 93.064 289.305C101.073 270.079 113.567 247.364 115.761 248.036C116.514 248.265 120.187 254.664 123.92 262.251ZM242.393 463.593C250.39 466.32 257.449 469.032 258.079 469.619C258.709 470.207 259.914 470.686 260.757 470.686C265.186 470.686 297.416 487.083 314.783 498.17C339.089 513.69 369.288 542.548 388.821 568.924C391.762 572.892 394.491 576.411 394.892 576.743C400.734 581.576 426.76 629.497 433.51 647.849C434.362 650.169 435.709 653.694 436.504 655.683C439.261 662.592 443.425 674.99 444.395 679.184C444.935 681.504 446.501 688.012 447.878 693.646C451.666 709.127 452.591 713.827 454.016 724.758C454.736 730.272 455.598 735.494 455.932 736.367C457.044 739.266 448.957 740.869 426.649 742.176C390.222 744.313 351.391 740.848 322.014 732.845C318.037 731.76 312.885 730.426 310.565 729.877C306.44 728.901 293.056 724.436 288.269 722.438C286.943 721.884 283.078 720.368 279.682 719.067C249.058 707.331 207.813 682.628 187.066 663.592C160.823 639.515 151.856 629 155.999 627.159C157.201 626.626 168.943 609.262 169.919 606.574C170.341 605.417 172.492 601.621 174.701 598.138C176.909 594.655 181.465 586.113 184.827 579.153C190.332 567.767 191.98 564.124 196.295 553.844C196.991 552.187 198.036 549.888 198.624 548.737C199.208 547.586 199.69 545.959 199.693 545.122C199.699 544.284 200.401 542.244 201.257 540.587C202.113 538.93 203.779 534.32 204.957 530.343C206.138 526.366 207.563 522.027 208.124 520.701C208.687 519.376 209.413 516.935 209.742 515.278C210.067 513.621 211.236 509.282 212.339 505.636C215.828 494.091 219.802 477.001 220.887 468.878C222.547 456.441 221.893 456.6 242.393 463.593Z" fill="white"/>
</svg>
